<svg width="830" height="295" viewBox="0 0 830 295" fill="none" xmlns="http://www.w3.org/2000/svg">
<path d="M237.13 147.5C237.13 225.171 184.7 285 123.565 285C62.4302 285 10 225.171 10 147.5C10 69.8292 62.4302 10 123.565 10C184.7 10 237.13 69.8292 237.13 147.5Z" stroke="#B08849" stroke-width="20"/>
<path d="M232.556 148.098C232.556 222.093 182.928 280.426 123.565 280.426C64.2022 280.426 14.574 222.093 14.574 148.098C14.574 74.1038 64.2022 15.7708 123.565 15.7708C182.928 15.7708 232.556 74.1038 232.556 148.098Z" stroke="#C59F60" stroke-width="10"/>
<line x1="108.974" y1="100.135" x2="31.7833" y2="221.606" stroke="#C39F5F" stroke-width="3"/>
<line x1="109.034" y1="100.032" x2="39.0235" y2="232.274" stroke="#C39F5F" stroke-width="3"/>
<line x1="109.083" y1="99.9291" x2="46.8521" y2="242.941" stroke="#C39F5F" stroke-width="3"/>
<line x1="109.117" y1="99.845" x2="54.0662" y2="250.636" stroke="#C39F5F" stroke-width="3"/>
<line x1="109.15" y1="99.7427" x2="63.6735" y2="258.911" stroke="#C39F5F" stroke-width="3"/>
<line x1="109.176" y1="99.637" x2="74.4704" y2="265.986" stroke="#C39F5F" stroke-width="3"/>
<line x1="109.195" y1="99.5255" x2="86.4569" y2="273.055" stroke="#C39F5F" stroke-width="3"/>
<line x1="144.489" y1="99.0703" x2="173.81" y2="265.419" stroke="#C39F5F" stroke-width="3"/>
<line x1="144.465" y1="98.9591" x2="185.155" y2="258.127" stroke="#C39F5F" stroke-width="3"/>
<line x1="144.436" y1="98.858" x2="194.101" y2="248.452" stroke="#C39F5F" stroke-width="3"/>
<line x1="144.395" y1="98.7483" x2="203.634" y2="239.367" stroke="#C39F5F" stroke-width="3"/>
<line x1="144.355" y1="98.6622" x2="210.775" y2="232.1" stroke="#C39F5F" stroke-width="3"/>
<line x1="144.298" y1="98.5589" x2="216.104" y2="218.234" stroke="#C39F5F" stroke-width="3"/>
<line x1="144.229" y1="98.4531" x2="223.215" y2="207.956" stroke="#C39F5F" stroke-width="3"/>
<g filter="url(#filter0_d)">
<path d="M125.261 60.9902C145.523 60.9902 166.568 53.0621 182.23 47.2964C185.507 46.1034 206.896 88.7499 206.896 89.0481C206.896 89.3463 209.539 98.5913 204.841 98.5913C200.142 98.5913 147.872 98.5913 146.698 99.7842C145.523 100.977 141.999 102.17 142.293 108.433C142.587 114.696 142.587 122.449 151.983 181.797C158.726 224.382 157.181 230.865 156.293 231.252C154.142 236.016 102.222 268.983 100.594 269.177C98.8664 269.383 97.2971 267.475 97.658 264.405C102.356 224.443 112.928 124.835 111.166 110.819C109.404 96.802 97.658 98.5913 97.658 98.5913C97.658 98.5913 53.023 102.17 46.8563 102.17C41.923 102.17 40.6897 100.977 40.6897 100.381C43.5087 83.2028 59.777 54.1801 64.769 51.7698C69.7611 49.3594 104.999 60.9902 125.261 60.9902Z" fill="#C19767"/>
<path d="M182.23 47.2964C166.568 53.0621 145.523 60.9902 125.261 60.9902C104.999 60.9902 69.7611 49.3594 64.769 51.7698C59.777 54.1801 43.5087 83.2028 40.6897 100.381C40.6897 100.977 41.923 102.17 46.8563 102.17C53.023 102.17 97.658 98.5913 97.658 98.5913C97.658 98.5913 109.404 96.802 111.166 110.819C112.928 124.835 102.356 224.443 97.658 264.405C97.2971 267.475 98.8664 269.383 100.594 269.177C102.323 268.971 160.776 231.8 156.095 230.706C154.681 230.375 161.38 241.144 151.983 181.797C142.587 122.449 142.587 114.696 142.293 108.433C141.999 102.17 145.523 100.977 146.698 99.7842C147.872 98.5913 200.142 98.5913 204.841 98.5913C209.539 98.5913 206.896 89.3463 206.896 89.0481C206.896 88.7498 185.507 46.1034 182.23 47.2964Z" stroke="#C19767"/>
</g>
<ellipse cx="123.864" cy="83.7728" rx="19.1481" ry="18.5497" fill="white"/>
<path d="M121.62 69.4787C122.289 69.9021 122.654 70.8094 122.654 72.4426V74.8015L119.186 74.4386C117.239 74.2571 115.597 73.8337 115.475 73.5313C114.928 72.2006 114.137 73.2894 114.137 75.4669C114.137 76.7976 114.441 77.8863 114.745 77.8863C115.11 77.8863 115.353 77.5839 115.353 77.2815C115.353 76.9185 116.996 76.6766 119.004 76.6766H122.654V83.0277C122.654 86.5359 122.471 89.3787 122.167 89.3787C121.924 89.3787 120.525 87.0802 119.125 84.2374C116.631 79.1565 116.57 79.0961 114.319 79.0961C112.068 79.0961 112.068 79.0961 113.407 80.0638C114.684 80.9106 114.745 81.455 114.745 87.8666C114.745 94.5201 114.684 94.762 113.407 95.004C112.616 95.1249 113.528 95.2459 115.353 95.2459C117.179 95.3064 118.213 95.1854 117.665 95.004C116.753 94.762 116.57 94.0362 116.57 90.2255C116.57 87.7456 116.692 85.7495 116.814 85.7495C116.996 85.7495 118.395 88.048 119.916 90.8909C121.498 93.7337 122.958 95.9112 123.262 95.7298C123.566 95.5483 125.087 93.0079 126.73 90.1046L129.65 84.8423L129.833 89.6207C129.954 93.0684 129.772 94.5805 129.224 94.883C128.738 95.1854 129.772 95.4274 131.779 95.4274C133.605 95.4274 134.821 95.1854 134.395 94.9435C133.97 94.7015 133.544 91.7982 133.239 87.6246C132.874 81.2736 132.874 80.6687 133.97 79.8824C135.004 79.0961 134.943 79.0356 132.996 79.217C131.049 79.3985 130.745 79.7009 128.068 84.7213L125.27 90.0441L124.844 83.6325C124.601 80.1243 124.54 77.0395 124.722 76.7976C124.844 76.5556 126.608 76.4951 128.616 76.5556C131.475 76.7371 132.388 77.0395 132.57 77.7654C132.753 78.3702 132.874 77.7049 132.935 76.3137L132.996 73.8942L129.224 74.3176C127.095 74.5596 125.27 74.6806 125.027 74.5596C124.357 74.1362 125.209 70.3255 126.182 69.5392C126.973 68.9344 126.608 68.8134 123.81 68.8134C121.315 68.8739 120.768 68.9948 121.62 69.4787Z" fill="#BB1B1B"/>
<path d="M311.52 118.48C313.28 118.48 314.72 118.347 315.84 118.08C317.013 117.76 317.947 117.36 318.64 116.88C319.333 116.347 319.813 115.733 320.08 115.04C320.347 114.347 320.48 113.573 320.48 112.72C320.48 110.907 319.627 109.413 317.92 108.24C316.213 107.013 313.28 105.707 309.12 104.32C307.307 103.68 305.493 102.96 303.68 102.16C301.867 101.307 300.24 100.267 298.8 99.04C297.36 97.76 296.187 96.24 295.28 94.48C294.373 92.6667 293.92 90.48 293.92 87.92C293.92 85.36 294.4 83.0667 295.36 81.04C296.32 78.96 297.68 77.2 299.44 75.76C301.2 74.32 303.333 73.2267 305.84 72.48C308.347 71.68 311.173 71.28 314.32 71.28C318.053 71.28 321.28 71.68 324 72.48C326.72 73.28 328.96 74.16 330.72 75.12L327.12 84.96C325.573 84.16 323.84 83.4667 321.92 82.88C320.053 82.24 317.787 81.92 315.12 81.92C312.133 81.92 309.973 82.3467 308.64 83.2C307.36 84 306.72 85.2533 306.72 86.96C306.72 87.9733 306.96 88.8267 307.44 89.52C307.92 90.2133 308.587 90.8533 309.44 91.44C310.347 91.9733 311.36 92.48 312.48 92.96C313.653 93.3867 314.933 93.84 316.32 94.32C319.2 95.3867 321.707 96.4533 323.84 97.52C325.973 98.5333 327.733 99.7333 329.12 101.12C330.56 102.507 331.627 104.133 332.32 106C333.013 107.867 333.36 110.133 333.36 112.8C333.36 117.973 331.547 122 327.92 124.88C324.293 127.707 318.827 129.12 311.52 129.12C309.067 129.12 306.853 128.96 304.88 128.64C302.907 128.373 301.147 128.027 299.6 127.6C298.107 127.173 296.8 126.72 295.68 126.24C294.613 125.76 293.707 125.307 292.96 124.88L296.48 114.96C298.133 115.867 300.16 116.693 302.56 117.44C305.013 118.133 308 118.48 311.52 118.48ZM381.523 106.88C381.523 110.187 381.043 113.227 380.083 116C379.123 118.72 377.736 121.067 375.923 123.04C374.109 124.96 371.923 126.453 369.363 127.52C366.856 128.587 364.029 129.12 360.883 129.12C357.789 129.12 354.963 128.587 352.403 127.52C349.896 126.453 347.736 124.96 345.923 123.04C344.109 121.067 342.696 118.72 341.683 116C340.669 113.227 340.163 110.187 340.163 106.88C340.163 103.573 340.669 100.56 341.683 97.84C342.749 95.12 344.189 92.8 346.003 90.88C347.869 88.96 350.056 87.4667 352.563 86.4C355.123 85.3333 357.896 84.8 360.883 84.8C363.923 84.8 366.696 85.3333 369.203 86.4C371.763 87.4667 373.949 88.96 375.763 90.88C377.576 92.8 378.989 95.12 380.003 97.84C381.016 100.56 381.523 103.573 381.523 106.88ZM369.363 106.88C369.363 103.2 368.616 100.32 367.123 98.24C365.683 96.1067 363.603 95.04 360.883 95.04C358.163 95.04 356.056 96.1067 354.563 98.24C353.069 100.32 352.323 103.2 352.323 106.88C352.323 110.56 353.069 113.493 354.563 115.68C356.056 117.813 358.163 118.88 360.883 118.88C363.603 118.88 365.683 117.813 367.123 115.68C368.616 113.493 369.363 110.56 369.363 106.88ZM370.723 70.8L357.523 81.92L352.083 77.04L363.443 64.08L370.723 70.8ZM388.756 106.96C388.756 103.92 389.236 101.067 390.196 98.4C391.21 95.68 392.65 93.3333 394.516 91.36C396.383 89.3333 398.65 87.7333 401.316 86.56C403.983 85.3867 407.023 84.8 410.436 84.8C412.676 84.8 414.73 85.0133 416.596 85.44C418.463 85.8133 420.276 86.3733 422.036 87.12L419.556 96.64C418.436 96.2133 417.21 95.84 415.876 95.52C414.543 95.2 413.05 95.04 411.396 95.04C407.876 95.04 405.236 96.1333 403.476 98.32C401.77 100.507 400.916 103.387 400.916 106.96C400.916 110.747 401.716 113.68 403.316 115.76C404.97 117.84 407.823 118.88 411.876 118.88C413.316 118.88 414.863 118.747 416.516 118.48C418.17 118.213 419.69 117.787 421.076 117.2L422.756 126.96C421.37 127.547 419.636 128.053 417.556 128.48C415.476 128.907 413.183 129.12 410.676 129.12C406.836 129.12 403.53 128.56 400.756 127.44C397.983 126.267 395.69 124.693 393.876 122.72C392.116 120.747 390.81 118.427 389.956 115.76C389.156 113.04 388.756 110.107 388.756 106.96ZM442.676 128H430.756V85.92H442.676V128ZM443.796 73.76C443.796 75.9467 443.076 77.68 441.636 78.96C440.25 80.1867 438.596 80.8 436.676 80.8C434.756 80.8 433.076 80.1867 431.636 78.96C430.25 77.68 429.556 75.9467 429.556 73.76C429.556 71.5733 430.25 69.8667 431.636 68.64C433.076 67.36 434.756 66.72 436.676 66.72C438.596 66.72 440.25 67.36 441.636 68.64C443.076 69.8667 443.796 71.5733 443.796 73.76ZM493.241 106.88C493.241 110.187 492.761 113.227 491.801 116C490.841 118.72 489.455 121.067 487.641 123.04C485.828 124.96 483.641 126.453 481.081 127.52C478.575 128.587 475.748 129.12 472.601 129.12C469.508 129.12 466.681 128.587 464.121 127.52C461.615 126.453 459.455 124.96 457.641 123.04C455.828 121.067 454.415 118.72 453.401 116C452.388 113.227 451.881 110.187 451.881 106.88C451.881 103.573 452.388 100.56 453.401 97.84C454.468 95.12 455.908 92.8 457.721 90.88C459.588 88.96 461.775 87.4667 464.281 86.4C466.841 85.3333 469.615 84.8 472.601 84.8C475.641 84.8 478.415 85.3333 480.921 86.4C483.481 87.4667 485.668 88.96 487.481 90.88C489.295 92.8 490.708 95.12 491.721 97.84C492.735 100.56 493.241 103.573 493.241 106.88ZM481.081 106.88C481.081 103.2 480.335 100.32 478.841 98.24C477.401 96.1067 475.321 95.04 472.601 95.04C469.881 95.04 467.775 96.1067 466.281 98.24C464.788 100.32 464.041 103.2 464.041 106.88C464.041 110.56 464.788 113.493 466.281 115.68C467.775 117.813 469.881 118.88 472.601 118.88C475.321 118.88 477.401 117.813 478.841 115.68C480.335 113.493 481.081 110.56 481.081 106.88Z" fill="#C19767"/>
<path d="M296.4 216V160.56H333.84V171.04H308.88V181.92H331.04V192.16H308.88V205.52H335.68V216H296.4ZM355.556 216C352.836 210.667 350.062 204.427 347.236 197.28C344.462 190.133 341.822 182.347 339.316 173.92H351.956C352.489 176 353.102 178.267 353.796 180.72C354.542 183.12 355.289 185.573 356.036 188.08C356.836 190.533 357.609 192.933 358.356 195.28C359.156 197.627 359.929 199.76 360.676 201.68C361.369 199.76 362.116 197.627 362.916 195.28C363.716 192.933 364.489 190.533 365.236 188.08C366.036 185.573 366.782 183.12 367.476 180.72C368.222 178.267 368.862 176 369.396 173.92H381.716C379.209 182.347 376.542 190.133 373.716 197.28C370.942 204.427 368.196 210.667 365.476 216H355.556ZM403.399 207.68C404.572 207.68 405.692 207.653 406.759 207.6C407.825 207.547 408.679 207.467 409.319 207.36V198.32C408.839 198.213 408.119 198.107 407.159 198C406.199 197.893 405.319 197.84 404.519 197.84C403.399 197.84 402.332 197.92 401.319 198.08C400.359 198.187 399.505 198.427 398.759 198.8C398.012 199.173 397.425 199.68 396.999 200.32C396.572 200.96 396.359 201.76 396.359 202.72C396.359 204.587 396.972 205.893 398.199 206.64C399.479 207.333 401.212 207.68 403.399 207.68ZM402.439 172.8C405.959 172.8 408.892 173.2 411.239 174C413.585 174.8 415.452 175.947 416.839 177.44C418.279 178.933 419.292 180.747 419.879 182.88C420.465 185.013 420.759 187.387 420.759 190V214.8C419.052 215.173 416.679 215.6 413.639 216.08C410.599 216.613 406.919 216.88 402.599 216.88C399.879 216.88 397.399 216.64 395.159 216.16C392.972 215.68 391.079 214.907 389.479 213.84C387.879 212.72 386.652 211.28 385.799 209.52C384.945 207.76 384.519 205.6 384.519 203.04C384.519 200.587 384.999 198.507 385.959 196.8C386.972 195.093 388.305 193.733 389.959 192.72C391.612 191.707 393.505 190.987 395.639 190.56C397.772 190.08 399.985 189.84 402.279 189.84C403.825 189.84 405.185 189.92 406.359 190.08C407.585 190.187 408.572 190.347 409.319 190.56V189.44C409.319 187.413 408.705 185.787 407.479 184.56C406.252 183.333 404.119 182.72 401.079 182.72C399.052 182.72 397.052 182.88 395.079 183.2C393.105 183.467 391.399 183.867 389.959 184.4L388.439 174.8C389.132 174.587 389.985 174.373 390.999 174.16C392.065 173.893 393.212 173.68 394.439 173.52C395.665 173.307 396.945 173.147 398.279 173.04C399.665 172.88 401.052 172.8 402.439 172.8ZM431.538 175.36C433.564 174.773 436.178 174.24 439.378 173.76C442.578 173.227 445.938 172.96 449.457 172.96C453.031 172.96 455.991 173.44 458.338 174.4C460.738 175.307 462.631 176.613 464.018 178.32C465.404 180.027 466.391 182.053 466.978 184.4C467.564 186.747 467.858 189.36 467.858 192.24V216H455.938V193.68C455.938 189.84 455.431 187.12 454.418 185.52C453.404 183.92 451.511 183.12 448.738 183.12C447.884 183.12 446.978 183.173 446.018 183.28C445.058 183.333 444.204 183.413 443.458 183.52V216H431.538V175.36ZM488.807 193.6C488.807 200.267 491.5 203.6 496.887 203.6C498.114 203.6 499.26 203.44 500.327 203.12C501.394 202.8 502.3 202.427 503.047 202V182.96C502.46 182.853 501.767 182.773 500.967 182.72C500.167 182.613 499.234 182.56 498.167 182.56C495.02 182.56 492.674 183.6 491.127 185.68C489.58 187.76 488.807 190.4 488.807 193.6ZM514.967 210.72C514.967 217.6 513.207 222.693 509.687 226C506.22 229.36 500.834 231.04 493.527 231.04C490.967 231.04 488.407 230.8 485.847 230.32C483.287 229.893 480.914 229.307 478.727 228.56L480.807 218.56C482.674 219.307 484.62 219.893 486.647 220.32C488.727 220.747 491.074 220.96 493.687 220.96C497.1 220.96 499.5 220.213 500.887 218.72C502.327 217.227 503.047 215.307 503.047 212.96V211.44C501.767 212.027 500.434 212.48 499.047 212.8C497.714 213.067 496.247 213.2 494.647 213.2C488.834 213.2 484.38 211.493 481.287 208.08C478.194 204.613 476.647 199.787 476.647 193.6C476.647 190.507 477.127 187.707 478.087 185.2C479.047 182.64 480.434 180.453 482.247 178.64C484.114 176.827 486.38 175.44 489.047 174.48C491.714 173.467 494.727 172.96 498.087 172.96C499.527 172.96 500.994 173.04 502.487 173.2C504.034 173.307 505.554 173.467 507.047 173.68C508.54 173.893 509.954 174.16 511.287 174.48C512.674 174.747 513.9 175.04 514.967 175.36V210.72ZM524.147 195.28C524.147 191.547 524.707 188.293 525.827 185.52C527 182.693 528.52 180.347 530.387 178.48C532.254 176.613 534.387 175.2 536.787 174.24C539.24 173.28 541.747 172.8 544.307 172.8C550.28 172.8 555 174.64 558.467 178.32C561.934 181.947 563.667 187.307 563.667 194.4C563.667 195.093 563.64 195.867 563.587 196.72C563.534 197.52 563.48 198.24 563.427 198.88H536.387C536.654 201.333 537.8 203.28 539.827 204.72C541.854 206.16 544.574 206.88 547.987 206.88C550.174 206.88 552.307 206.693 554.387 206.32C556.52 205.893 558.254 205.387 559.587 204.8L561.187 214.48C560.547 214.8 559.694 215.12 558.627 215.44C557.56 215.76 556.36 216.027 555.027 216.24C553.747 216.507 552.36 216.72 550.867 216.88C549.374 217.04 547.88 217.12 546.387 217.12C542.6 217.12 539.294 216.56 536.467 215.44C533.694 214.32 531.374 212.8 529.507 210.88C527.694 208.907 526.334 206.587 525.427 203.92C524.574 201.253 524.147 198.373 524.147 195.28ZM552.147 190.72C552.094 189.707 551.907 188.72 551.587 187.76C551.32 186.8 550.867 185.947 550.227 185.2C549.64 184.453 548.867 183.84 547.907 183.36C547 182.88 545.854 182.64 544.467 182.64C543.134 182.64 541.987 182.88 541.027 183.36C540.067 183.787 539.267 184.373 538.627 185.12C537.987 185.867 537.48 186.747 537.107 187.76C536.787 188.72 536.547 189.707 536.387 190.72H552.147ZM589.666 216.8C586.199 216.747 583.372 216.373 581.186 215.68C579.052 214.987 577.346 214.027 576.066 212.8C574.839 211.52 573.986 210 573.506 208.24C573.079 206.427 572.866 204.4 572.866 202.16V155.84L584.786 153.92V199.76C584.786 200.827 584.866 201.787 585.026 202.64C585.186 203.493 585.479 204.213 585.906 204.8C586.386 205.387 587.052 205.867 587.906 206.24C588.759 206.613 589.906 206.853 591.346 206.96L589.666 216.8ZM610.098 216H598.178V173.92H610.098V216ZM611.218 161.76C611.218 163.947 610.498 165.68 609.058 166.96C607.671 168.187 606.018 168.8 604.098 168.8C602.178 168.8 600.498 168.187 599.058 166.96C597.671 165.68 596.978 163.947 596.978 161.76C596.978 159.573 597.671 157.867 599.058 156.64C600.498 155.36 602.178 154.72 604.098 154.72C606.018 154.72 607.671 155.36 609.058 156.64C610.498 157.867 611.218 159.573 611.218 161.76ZM652.903 181.92C651.943 182.987 650.636 184.427 648.983 186.24C647.383 188.053 645.65 190.053 643.783 192.24C641.916 194.427 640.023 196.72 638.103 199.12C636.236 201.52 634.53 203.84 632.983 206.08H653.303V216H618.503V208.96C619.623 207.04 620.956 204.987 622.503 202.8C624.103 200.56 625.756 198.32 627.463 196.08C629.223 193.84 630.956 191.68 632.663 189.6C634.37 187.467 635.943 185.547 637.383 183.84H619.463V173.92H652.903V181.92ZM676.211 207.68C677.385 207.68 678.505 207.653 679.571 207.6C680.638 207.547 681.491 207.467 682.131 207.36V198.32C681.651 198.213 680.931 198.107 679.971 198C679.011 197.893 678.131 197.84 677.331 197.84C676.211 197.84 675.145 197.92 674.131 198.08C673.171 198.187 672.318 198.427 671.571 198.8C670.825 199.173 670.238 199.68 669.811 200.32C669.385 200.96 669.171 201.76 669.171 202.72C669.171 204.587 669.785 205.893 671.011 206.64C672.291 207.333 674.025 207.68 676.211 207.68ZM675.251 172.8C678.771 172.8 681.705 173.2 684.051 174C686.398 174.8 688.265 175.947 689.651 177.44C691.091 178.933 692.105 180.747 692.691 182.88C693.278 185.013 693.571 187.387 693.571 190V214.8C691.865 215.173 689.491 215.6 686.451 216.08C683.411 216.613 679.731 216.88 675.411 216.88C672.691 216.88 670.211 216.64 667.971 216.16C665.785 215.68 663.891 214.907 662.291 213.84C660.691 212.72 659.465 211.28 658.611 209.52C657.758 207.76 657.331 205.6 657.331 203.04C657.331 200.587 657.811 198.507 658.771 196.8C659.785 195.093 661.118 193.733 662.771 192.72C664.425 191.707 666.318 190.987 668.451 190.56C670.585 190.08 672.798 189.84 675.091 189.84C676.638 189.84 677.998 189.92 679.171 190.08C680.398 190.187 681.385 190.347 682.131 190.56V189.44C682.131 187.413 681.518 185.787 680.291 184.56C679.065 183.333 676.931 182.72 673.891 182.72C671.865 182.72 669.865 182.88 667.891 183.2C665.918 183.467 664.211 183.867 662.771 184.4L661.251 174.8C661.945 174.587 662.798 174.373 663.811 174.16C664.878 173.893 666.025 173.68 667.251 173.52C668.478 173.307 669.758 173.147 671.091 173.04C672.478 172.88 673.865 172.8 675.251 172.8ZM714.51 194.64C714.51 198.32 715.337 201.28 716.99 203.52C718.643 205.76 721.097 206.88 724.35 206.88C725.417 206.88 726.403 206.853 727.31 206.8C728.217 206.693 728.963 206.587 729.55 206.48V184.8C728.803 184.32 727.817 183.92 726.59 183.6C725.417 183.28 724.217 183.12 722.99 183.12C717.337 183.12 714.51 186.96 714.51 194.64ZM741.47 214.64C740.403 214.96 739.177 215.28 737.79 215.6C736.403 215.867 734.937 216.107 733.39 216.32C731.897 216.533 730.35 216.693 728.75 216.8C727.203 216.96 725.71 217.04 724.27 217.04C720.803 217.04 717.71 216.533 714.99 215.52C712.27 214.507 709.977 213.067 708.11 211.2C706.243 209.28 704.803 206.987 703.79 204.32C702.83 201.6 702.35 198.56 702.35 195.2C702.35 191.787 702.777 188.72 703.63 186C704.483 183.227 705.71 180.88 707.31 178.96C708.91 177.04 710.857 175.573 713.15 174.56C715.497 173.547 718.163 173.04 721.15 173.04C722.803 173.04 724.27 173.2 725.55 173.52C726.883 173.84 728.217 174.293 729.55 174.88V155.84L741.47 153.92V214.64ZM791.991 194.88C791.991 198.187 791.511 201.227 790.551 204C789.591 206.72 788.205 209.067 786.391 211.04C784.578 212.96 782.391 214.453 779.831 215.52C777.325 216.587 774.498 217.12 771.351 217.12C768.258 217.12 765.431 216.587 762.871 215.52C760.365 214.453 758.205 212.96 756.391 211.04C754.578 209.067 753.165 206.72 752.151 204C751.138 201.227 750.631 198.187 750.631 194.88C750.631 191.573 751.138 188.56 752.151 185.84C753.218 183.12 754.658 180.8 756.471 178.88C758.338 176.96 760.525 175.467 763.031 174.4C765.591 173.333 768.365 172.8 771.351 172.8C774.391 172.8 777.165 173.333 779.671 174.4C782.231 175.467 784.418 176.96 786.231 178.88C788.045 180.8 789.458 183.12 790.471 185.84C791.485 188.56 791.991 191.573 791.991 194.88ZM779.831 194.88C779.831 191.2 779.085 188.32 777.591 186.24C776.151 184.107 774.071 183.04 771.351 183.04C768.631 183.04 766.525 184.107 765.031 186.24C763.538 188.32 762.791 191.2 762.791 194.88C762.791 198.56 763.538 201.493 765.031 203.68C766.525 205.813 768.631 206.88 771.351 206.88C774.071 206.88 776.151 205.813 777.591 203.68C779.085 201.493 779.831 198.56 779.831 194.88ZM826.585 184.48C825.518 184.213 824.265 183.947 822.825 183.68C821.385 183.36 819.838 183.2 818.185 183.2C817.438 183.2 816.532 183.28 815.465 183.44C814.452 183.547 813.678 183.68 813.145 183.84V216H801.225V176.16C803.358 175.413 805.865 174.72 808.745 174.08C811.678 173.387 814.932 173.04 818.505 173.04C819.145 173.04 819.918 173.093 820.825 173.2C821.732 173.253 822.638 173.36 823.545 173.52C824.452 173.627 825.358 173.787 826.265 174C827.172 174.16 827.945 174.373 828.585 174.64L826.585 184.48Z" fill="#C19767"/>
<defs>
<filter id="filter0_d" x="36.1897" y="46.7718" width="175.947" height="230.921" filterUnits="userSpaceOnUse" color-interpolation-filters="sRGB">
<feFlood flood-opacity="0" result="BackgroundImageFix"/>
<feColorMatrix in="SourceAlpha" type="matrix" values="0 0 0 0 0 0 0 0 0 0 0 0 0 0 0 0 0 0 127 0"/>
<feOffset dy="4"/>
<feGaussianBlur stdDeviation="2"/>
<feColorMatrix type="matrix" values="0 0 0 0 0 0 0 0 0 0 0 0 0 0 0 0 0 0 0.25 0"/>
<feBlend mode="normal" in2="BackgroundImageFix" result="effect1_dropShadow"/>
<feBlend mode="normal" in="SourceGraphic" in2="effect1_dropShadow" result="shape"/>
</filter>
</defs>
</svg>
